<?xml version="1.0" encoding="UTF-8"?>
<svg id="Vrstva_1" data-name="Vrstva 1" xmlns="http://www.w3.org/2000/svg" viewBox="0 0 1520 400">
  <path d="M248.972,127.01c-53.013,1.315-87.471,44.733-86.275,81.753,1.157,35.846,24.479,74.944,68.716,74.944s90.656-42.318,90.655-86.768c0-14.278-3.895-26.608-10.315-36.813-10.904-17.337-23.061-18.283-30.95-21.873-7.191-3.274-15.791-11.644-31.831-11.242h0ZM317.691,132.738c-1.467-3.214.367-16.116-8.046-25.09-8.411-8.971-27.022-29.052-79.674-29.054-46.439.002-116.507,27.671-122.837,111.168-5.845,77.105,65.442,131.609,121.737,131.609s121.345-51.629,121.345-116.541c0-43.039-31.057-68.874-32.525-72.093h0Z" style="fill: #fcfaf7; fill-rule: evenodd;"/>
  <g>
    <g>
      <path d="M453.119,112.752v48.823h52.492v-48.823h25.539v120.176h-25.539v-49.406h-52.492v49.406h-25.539v-120.176h25.539Z" style="fill: #fcfaf7;"/>
      <path d="M575.63,145.551v8.261h1.334c5.62-6.678,14.299-10.013,26.037-10.013,10.626,0,18.874,2.766,24.747,8.302,5.869,5.536,8.804,13.618,8.804,24.245v56.583h-24.538v-54.497c0-5.061-1.334-8.874-4.006-11.432-2.668-2.561-6.563-3.841-11.681-3.841-5.899,0-10.684,1.712-14.356,5.135-3.672,3.42-5.509,8.666-5.509,15.731v48.904h-24.619v-87.377h23.787Z" style="fill: #fcfaf7;"/>
      <path d="M715.169,232.928v-8.177h-1.334c-5.509,6.62-14.134,9.929-25.872,9.929-10.573,0-18.777-2.766-24.619-8.302-5.842-5.536-8.763-13.618-8.763-24.245v-56.583h24.535v54.578c0,5.064,1.307,8.874,3.925,11.435,2.615,2.561,6.479,3.838,11.6,3.838,5.95,0,10.724-1.712,14.312-5.131,3.588-3.423,5.381-8.693,5.381-15.815v-48.904h24.622v87.377h-23.787Z" style="fill: #fcfaf7;"/>
      <path d="M770.165,145.551v-22.2h24.619v22.2h23.369v18.527h-23.369v47.651l1.334,1.338h21.368v19.861h-21.701c-8.012,0-14.285-2.059-18.817-6.176-4.535-4.117-6.802-10.013-6.802-17.692v-44.982h-18.362v-18.527h18.362Z" style="fill: #fcfaf7;"/>
      <path d="M857.458,145.551v87.377h-24.619v-87.377h24.619ZM833.257,135.117v-2.503l11.432-20.862h21.617v2.503l-14.272,20.862h-18.777Z" style="fill: #fcfaf7;"/>
      <path d="M1001.421,120.053c9.346,4.872,16.566,11.826,21.657,20.866,5.091,9.043,7.635,19.683,7.635,31.923s-2.544,22.88-7.635,31.92c-5.091,9.043-12.311,15.997-21.657,20.866-9.346,4.869-20.31,7.301-32.88,7.301h-47.988v-120.176h47.988c12.571,0,23.534,2.436,32.88,7.301ZM967.537,211.564c7.456,0,13.992-1.462,19.612-4.383,5.62-2.921,9.986-7.271,13.103-13.059,3.117-5.785,4.673-12.88,4.673-21.28s-1.557-15.495-4.673-21.283c-3.117-5.785-7.483-10.138-13.103-13.059-5.62-2.921-12.156-4.383-19.612-4.383h-21.445v77.448h21.445Z" style="fill: #fcfaf7;"/>
      <path d="M1072.023,112.752v75.612c0,7.79,2.267,13.841,6.802,18.15,4.535,4.313,11.142,6.469,19.821,6.469s15.286-2.156,19.821-6.469c4.535-4.309,6.802-10.36,6.802-18.15v-75.612h25.535v76.444c0,9.292-2.001,17.375-6.007,24.245-4.006,6.873-9.905,12.173-17.692,15.899-7.79,3.726-17.277,5.59-28.46,5.59-10.96,0-20.364-1.863-28.207-5.59-7.847-3.726-13.8-9.026-17.86-15.899-4.063-6.87-6.092-14.953-6.092-24.245v-76.444h25.535Z" style="fill: #fcfaf7;"/>
      <path d="M1197.539,112.752v48.823h52.492v-48.823h25.539v120.176h-25.539v-49.406h-52.492v49.406h-25.539v-120.176h25.539Z" style="fill: #fcfaf7;"/>
      <path d="M1363.284,112.752l41.057,117.673v2.503h-25.788l-9.262-28.375h-45.151l-9.262,28.375h-25.205v-2.503l41.061-117.673h32.55ZM1362.614,183.273l-15.188-46.569h-1.334l-15.273,46.569h31.795Z" style="fill: #fcfaf7;"/>
    </g>
    <g>
      <path d="M455.505,269.865v6.971h-19.381v9.752h17.115v6.944h-17.115v16.668h-8.544v-40.334h27.925Z" style="fill: #fcfaf7;"/>
      <path d="M467.213,280.871v3.278h.451c.543-1.14,1.354-1.988,2.435-2.549,1.085-.561,2.512-.839,4.286-.839h4.09v6.72h-4.117c-2.298,0-3.998.597-5.111,1.792-1.112,1.199-1.669,3.073-1.669,5.63v15.296h-8.261v-29.329h7.896Z" style="fill: #fcfaf7;"/>
      <path d="M491.276,270.367v6.725h-8.489v-6.725h8.489ZM491.162,280.871v29.329h-8.261v-29.329h8.261Z" style="fill: #fcfaf7;"/>
      <path d="M498.155,287.076c1.24-2.289,2.986-4.003,5.238-5.152,2.248-1.149,4.906-1.723,7.969-1.723,2.968,0,5.526.561,7.673,1.678,2.147,1.122,3.793,2.754,4.933,4.892,1.135,2.138,1.705,4.7,1.705,7.687v3.333h-21.51c.036,1.345.346,2.544.925,3.602.574,1.053,1.4,1.883,2.462,2.494,1.067.606,2.316.907,3.757.907,1.997,0,3.538-.397,4.618-1.19,1.085-.793,1.755-1.732,2.02-2.813h7.171v.839c-.356,1.532-1.049,2.991-2.074,4.381-1.026,1.395-2.508,2.553-4.441,3.474-1.933.925-4.317,1.386-7.158,1.386-3.064,0-5.731-.57-8.01-1.719-2.28-1.149-4.039-2.872-5.279-5.17-1.245-2.298-1.865-5.115-1.865-8.457s.62-6.159,1.865-8.448ZM517.974,292.187c-.018-1.135-.283-2.161-.784-3.064-.506-.907-1.258-1.623-2.257-2.143-.998-.524-2.225-.784-3.684-.784-1.4,0-2.608.269-3.624.812-1.021.543-1.81,1.263-2.371,2.17-.556.907-.894,1.91-1.008,3.009h13.727Z" style="fill: #fcfaf7;"/>
      <path d="M538.754,280.871v2.772h.447c1.887-2.239,4.801-3.36,8.74-3.36,3.565,0,6.337.93,8.307,2.79,1.97,1.856,2.954,4.568,2.954,8.133v18.993h-8.234v-18.291c0-1.701-.451-2.977-1.345-3.839-.898-.857-2.207-1.286-3.921-1.286-1.983,0-3.588.574-4.819,1.719-1.236,1.149-1.851,2.909-1.851,5.284v16.413h-8.261v-29.329h7.983Z" style="fill: #fcfaf7;"/>
      <path d="M594.804,310.2h-8.01v-2.831h-.447c-1.942,2.28-4.91,3.419-8.908,3.419-2.503,0-4.76-.561-6.779-1.682-2.015-1.117-3.615-2.822-4.801-5.111-1.19-2.289-1.783-5.102-1.783-8.443s.593-6.159,1.783-8.448c1.185-2.284,2.786-3.994,4.801-5.124,2.02-1.131,4.276-1.696,6.779-1.696,3.848,0,6.743,1.076,8.685,3.223h.419v-13.641h8.261v40.334ZM574.37,302.116c1.299,1.541,3.059,2.311,5.279,2.311,2.243,0,4.012-.77,5.311-2.311,1.295-1.536,1.947-3.729,1.947-6.565s-.652-5.033-1.947-6.583c-1.299-1.55-3.068-2.325-5.311-2.325-1.454,0-2.731.346-3.821,1.035-1.094.693-1.933,1.705-2.521,3.041-.588,1.336-.884,2.945-.884,4.833,0,2.836.652,5.029,1.947,6.565Z" style="fill: #fcfaf7;"/>
      <path d="M601.638,284.386c.989-1.313,2.453-2.334,4.386-3.05,1.933-.72,4.281-1.081,7.044-1.081,2.781,0,5.165.36,7.144,1.081,1.979.716,3.515,1.742,4.605,3.064,1.094,1.327,1.714,2.904,1.865,4.737v.839h-7.45c-.114-1.4-.698-2.398-1.751-2.995-1.058-.597-2.508-.898-4.359-.898-1.719,0-3.014.233-3.893.702-.875.465-1.313,1.149-1.313,2.042,0,.821.292,1.445.88,1.865.588.419,1.441.711,2.562.88l5.827.843c6.611.93,9.916,3.893,9.916,8.877,0,1.869-.479,3.515-1.441,4.947-.962,1.427-2.435,2.549-4.413,3.36-1.979.812-4.436,1.217-7.368,1.217s-5.453-.397-7.564-1.19c-2.111-.793-3.725-1.883-4.846-3.264-1.117-1.381-1.723-2.941-1.819-4.678v-.839h7.618c.096,1.381.743,2.412,1.947,3.096,1.204.679,2.758,1.021,4.664,1.021,1.755,0,3.096-.278,4.021-.839.925-.561,1.386-1.345,1.386-2.352,0-.898-.328-1.587-.98-2.074-.652-.483-1.646-.821-2.968-1.008l-5.827-.843c-2.95-.429-5.248-1.359-6.893-2.799-1.641-1.436-2.462-3.438-2.462-5.995,0-1.792.492-3.346,1.482-4.664Z" style="fill: #fcfaf7;"/>
      <path d="M646.431,287.144c1.345-2.293,3.214-4.026,5.617-5.193,2.398-1.167,5.156-1.751,8.275-1.751s5.877.584,8.279,1.751c2.398,1.167,4.272,2.9,5.617,5.193,1.34,2.298,2.015,5.102,2.015,8.407,0,3.287-.675,6.077-2.015,8.375-1.345,2.298-3.219,4.03-5.617,5.193-2.403,1.167-5.161,1.751-8.279,1.751s-5.877-.584-8.275-1.751c-2.403-1.163-4.272-2.895-5.617-5.193-1.345-2.298-2.02-5.088-2.02-8.375,0-3.305.675-6.109,2.02-8.407ZM654.779,302.23c1.345,1.559,3.191,2.339,5.544,2.339s4.203-.78,5.548-2.339c1.345-1.559,2.015-3.784,2.015-6.679s-.67-5.129-2.015-6.697c-1.345-1.568-3.196-2.352-5.548-2.352s-4.199.784-5.544,2.352c-1.345,1.568-2.02,3.802-2.02,6.697s.675,5.12,2.02,6.679Z" style="fill: #fcfaf7;"/>
      <path d="M678.363,280.871h6.333v-2.995c0-2.576.757-4.559,2.27-5.941,1.509-1.381,3.611-2.07,6.301-2.07h7.422v6.023h-7.308l-.451.447v4.536h7.564v6.219h-7.564v23.11h-8.234v-23.11h-6.333v-6.219Z" style="fill: #fcfaf7;"/>
      <path d="M721.948,280.871v-7.45h8.261v7.45h7.846v6.219h-7.846v15.993l.451.451h7.171v6.665h-7.285c-2.69,0-4.792-.688-6.314-2.074-1.523-1.381-2.284-3.36-2.284-5.936v-15.1h-6.164v-6.219h6.164Z" style="fill: #fcfaf7;"/>
      <path d="M751.245,269.865v13.554h.451c1.846-2.088,4.696-3.137,8.544-3.137,3.565,0,6.346.93,8.343,2.79,2.001,1.856,3,4.568,3,8.133v18.993h-8.234v-18.291c0-1.701-.46-2.977-1.377-3.839-.912-.857-2.239-1.286-3.976-1.286-1.997,0-3.624.574-4.874,1.719-1.249,1.149-1.878,2.909-1.878,5.284v16.413h-8.261v-40.334h8.261Z" style="fill: #fcfaf7;"/>
      <path d="M778.321,287.076c1.24-2.289,2.986-4.003,5.238-5.152,2.248-1.149,4.906-1.723,7.969-1.723,2.968,0,5.526.561,7.673,1.678,2.147,1.122,3.793,2.754,4.933,4.892,1.135,2.138,1.705,4.7,1.705,7.687v3.333h-21.51c.036,1.345.346,2.544.925,3.602.574,1.053,1.4,1.883,2.462,2.494,1.067.606,2.316.907,3.757.907,1.997,0,3.538-.397,4.618-1.19,1.085-.793,1.755-1.732,2.02-2.813h7.171v.839c-.356,1.532-1.049,2.991-2.074,4.381-1.026,1.395-2.508,2.553-4.441,3.474-1.933.925-4.317,1.386-7.158,1.386-3.064,0-5.731-.57-8.01-1.719-2.28-1.149-4.039-2.872-5.279-5.17-1.245-2.298-1.865-5.115-1.865-8.457s.62-6.159,1.865-8.448ZM798.14,292.187c-.018-1.135-.283-2.161-.784-3.064-.506-.907-1.258-1.623-2.257-2.143-.998-.524-2.225-.784-3.684-.784-1.4,0-2.608.269-3.624.812-1.021.543-1.81,1.263-2.371,2.17-.556.907-.894,1.91-1.008,3.009h13.727Z" style="fill: #fcfaf7;"/>
      <path d="M854.467,269.865v6.971h-20.616v9.556h17.812v6.944h-17.812v9.889h21.008v6.975h-29.552v-40.334h29.16Z" style="fill: #fcfaf7;"/>
      <path d="M862.118,284.5c1.117-1.372,2.663-2.435,4.632-3.178,1.974-.748,4.29-1.122,6.962-1.122,4.167,0,7.386.962,9.665,2.886,2.28,1.924,3.419,4.837,3.419,8.74v18.373h-7.623v-3.027h-.447c-.597,1.012-1.614,1.851-3.055,2.521-1.436.675-3.415,1.012-5.936,1.012-2.225,0-4.176-.36-5.854-1.081-1.682-.72-2.991-1.755-3.921-3.109-.935-1.354-1.404-2.954-1.404-4.805,0-2.781.948-4.928,2.845-6.442,1.897-1.514,4.422-2.453,7.577-2.827l9.916-1.236v-.529c0-1.587-.433-2.749-1.304-3.488-.866-.739-2.197-1.108-3.989-1.108-1.773,0-3.159.346-4.149,1.035-.989.693-1.55,1.701-1.678,3.027h-7.65v-.839c.205-1.833.871-3.433,1.992-4.805ZM868.04,303.758c.848.615,2.02.925,3.515.925,2.225,0,4.003-.574,5.339-1.723,1.331-1.149,2.001-2.827,2.001-5.029v-1.204l-8.038,1.062c-1.272.187-2.27.561-3,1.122s-1.09,1.336-1.09,2.325c0,1.062.424,1.906,1.272,2.521Z" style="fill: #fcfaf7;"/>
      <path d="M901.02,280.871v3.278h.451c.543-1.158,1.354-2.02,2.435-2.59,1.085-.57,2.512-.857,4.286-.857h2.466v6.697h-2.494c-2.298,0-3.998.593-5.111,1.778-1.112,1.185-1.669,3.059-1.669,5.617v15.405h-8.261v-29.329h7.896Z" style="fill: #fcfaf7;"/>
      <path d="M919.676,280.871v-7.45h8.261v7.45h7.846v6.219h-7.846v15.993l.451.451h7.171v6.665h-7.285c-2.69,0-4.792-.688-6.314-2.074-1.523-1.381-2.284-3.36-2.284-5.936v-15.1h-6.164v-6.219h6.164Z" style="fill: #fcfaf7;"/>
      <path d="M948.973,269.865v13.554h.451c1.846-2.088,4.696-3.137,8.544-3.137,3.565,0,6.346.93,8.343,2.79,2.001,1.856,3,4.568,3,8.133v18.993h-8.234v-18.291c0-1.701-.46-2.977-1.377-3.839-.912-.857-2.239-1.286-3.976-1.286-1.997,0-3.624.574-4.874,1.719-1.249,1.149-1.878,2.909-1.878,5.284v16.413h-8.261v-40.334h8.261Z" style="fill: #fcfaf7;"/>
      <path d="M990.739,278.742c1.646-3.137,4.026-5.53,7.144-7.185,3.118-1.65,6.861-2.476,11.234-2.476,4.09,0,7.527.716,10.322,2.156,2.79,1.436,4.874,3.26,6.246,5.475,1.372,2.211,2.106,4.477,2.197,6.793v.839h-7.983c-.109-1.327-.52-2.599-1.231-3.825-.711-1.222-1.842-2.243-3.392-3.064-1.55-.825-3.547-1.236-5.991-1.236-3.98,0-7.021,1.204-9.132,3.602-2.111,2.398-3.169,5.804-3.169,10.208s1.058,7.814,3.169,10.212c2.111,2.398,5.152,3.597,9.132,3.597,2.444,0,4.454-.424,6.023-1.272,1.568-.853,2.722-1.91,3.456-3.182.739-1.267,1.172-2.585,1.304-3.948h7.983v.839c-.187,2.466-.976,4.814-2.366,7.048-1.391,2.229-3.474,4.067-6.246,5.503-2.772,1.436-6.214,2.156-10.322,2.156-4.372,0-8.115-.825-11.234-2.48-3.118-1.65-5.498-4.048-7.144-7.185-1.641-3.137-2.462-6.898-2.462-11.288s.821-8.152,2.462-11.288Z" style="fill: #fcfaf7;"/>
      <path d="M1057.967,280.871v5.603l-16.107,17.648h16.413v6.077h-26.443v-5.576l16.08-17.676h-15.519v-6.077h25.577Z" style="fill: #fcfaf7;"/>
      <path d="M1063.274,287.076c1.24-2.289,2.986-4.003,5.238-5.152,2.248-1.149,4.906-1.723,7.969-1.723,2.968,0,5.526.561,7.673,1.678,2.147,1.122,3.793,2.754,4.933,4.892,1.135,2.138,1.705,4.7,1.705,7.687v3.333h-21.51c.036,1.345.346,2.544.925,3.602.574,1.053,1.4,1.883,2.462,2.494,1.067.606,2.316.907,3.757.907,1.997,0,3.538-.397,4.618-1.19,1.085-.793,1.755-1.732,2.02-2.813h7.171v.839c-.356,1.532-1.049,2.991-2.074,4.381-1.026,1.395-2.508,2.553-4.441,3.474-1.933.925-4.317,1.386-7.158,1.386-3.064,0-5.731-.57-8.01-1.719-2.28-1.149-4.039-2.872-5.279-5.17-1.245-2.298-1.865-5.115-1.865-8.457s.62-6.159,1.865-8.448ZM1083.093,292.187c-.018-1.135-.283-2.161-.784-3.064-.506-.907-1.258-1.623-2.257-2.143-.998-.524-2.225-.784-3.684-.784-1.4,0-2.608.269-3.624.812-1.021.543-1.81,1.263-2.371,2.17-.556.907-.894,1.91-1.008,3.009h13.727Z" style="fill: #fcfaf7;"/>
      <path d="M1096.396,287.117c1.308-2.293,3.128-4.021,5.466-5.179,2.33-1.158,5.038-1.737,8.12-1.737,2.859,0,5.334.488,7.422,1.468,2.093.98,3.702,2.289,4.833,3.921,1.131,1.637,1.751,3.406,1.865,5.311v.839h-7.591c-.15-1.436-.729-2.663-1.737-3.67-1.008-1.008-2.53-1.514-4.568-1.514-1.527,0-2.859.351-3.989,1.053-1.131.698-1.997,1.728-2.603,3.082-.611,1.354-.912,2.973-.912,4.86s.301,3.506.912,4.86c.606,1.354,1.473,2.38,2.603,3.082,1.131.698,2.462,1.049,3.989,1.049,2.074,0,3.62-.529,4.637-1.582,1.017-1.058,1.6-2.348,1.751-3.88h7.65v.839c-.15,1.997-.793,3.83-1.919,5.489-1.131,1.664-2.745,2.991-4.846,3.98-2.102.989-4.6,1.482-7.495,1.482-3.082,0-5.79-.579-8.12-1.732-2.339-1.158-4.158-2.881-5.466-5.17-1.304-2.289-1.96-5.093-1.96-8.416s.657-6.137,1.96-8.434Z" style="fill: #fcfaf7;"/>
      <path d="M1137.346,269.865v13.554h.451c1.846-2.088,4.696-3.137,8.544-3.137,3.565,0,6.346.93,8.343,2.79,2.001,1.856,3,4.568,3,8.133v18.993h-8.234v-18.291c0-1.701-.46-2.977-1.377-3.839-.912-.857-2.239-1.286-3.976-1.286-1.997,0-3.624.574-4.874,1.719-1.249,1.149-1.878,2.909-1.878,5.284v16.413h-8.261v-40.334h8.261Z" style="fill: #fcfaf7;"/>
      <path d="M1205.053,271.237c2.015.912,3.606,2.275,4.773,4.09,1.167,1.81,1.751,3.994,1.751,6.551,0,2.544-.543,4.71-1.623,6.501-1.085,1.792-2.553,3.15-4.413,4.076-1.86.925-3.935,1.386-6.232,1.386h-1.71l14.261,15.519v.839h-9.583l-14.79-16.527h-.561v16.527h-8.457v-40.334h19.745c2.539,0,4.819.456,6.839,1.372ZM1196.87,287.4c1.942,0,3.488-.451,4.637-1.359,1.149-.907,1.723-2.22,1.723-3.935,0-1.701-.574-3.004-1.723-3.912-1.149-.903-2.694-1.359-4.637-1.359h-9.943v10.563h9.943Z" style="fill: #fcfaf7;"/>
      <path d="M1216.246,287.076c1.24-2.289,2.986-4.003,5.238-5.152,2.248-1.149,4.906-1.723,7.969-1.723,2.968,0,5.526.561,7.673,1.678,2.147,1.122,3.793,2.754,4.933,4.892,1.135,2.138,1.705,4.7,1.705,7.687v3.333h-21.51c.036,1.345.346,2.544.925,3.602.574,1.053,1.4,1.883,2.462,2.494,1.067.606,2.316.907,3.757.907,1.997,0,3.538-.397,4.618-1.19,1.085-.793,1.755-1.732,2.02-2.813h7.171v.839c-.356,1.532-1.049,2.991-2.074,4.381-1.026,1.395-2.508,2.553-4.441,3.474-1.933.925-4.317,1.386-7.158,1.386-3.064,0-5.731-.57-8.01-1.719s-4.039-2.872-5.279-5.17c-1.245-2.298-1.865-5.115-1.865-8.457s.62-6.159,1.865-8.448ZM1236.064,292.187c-.018-1.135-.283-2.161-.784-3.064-.506-.907-1.258-1.623-2.257-2.143-.998-.524-2.225-.784-3.684-.784-1.4,0-2.608.269-3.624.812-1.021.543-1.81,1.263-2.371,2.17-.556.907-.894,1.91-1.008,3.009h13.727Z" style="fill: #fcfaf7;"/>
      <path d="M1248.862,280.871h8.038v2.859h.447c1.942-2.298,4.906-3.447,8.881-3.447,2.521,0,4.792.565,6.807,1.696,2.015,1.131,3.615,2.84,4.792,5.124,1.176,2.289,1.764,5.106,1.764,8.448s-.588,6.155-1.764,8.443c-1.176,2.289-2.776,3.994-4.792,5.111-2.015,1.122-4.286,1.682-6.807,1.682-3.848,0-6.743-1.062-8.685-3.191h-.419v13.81h-8.261v-40.535ZM1258.705,302.116c1.299,1.541,3.068,2.311,5.311,2.311,1.454,0,2.731-.337,3.821-1.021,1.094-.679,1.938-1.691,2.535-3.023.597-1.336.898-2.95.898-4.833s-.301-3.497-.898-4.833c-.597-1.336-1.441-2.348-2.535-3.041-1.09-.688-2.366-1.035-3.821-1.035-2.243,0-4.012.775-5.311,2.325-1.295,1.55-1.947,3.743-1.947,6.583s.652,5.029,1.947,6.565Z" style="fill: #fcfaf7;"/>
      <path d="M1304.797,310.2v-2.745h-.447c-1.851,2.22-4.746,3.333-8.685,3.333-3.547,0-6.301-.93-8.261-2.786-1.96-1.86-2.941-4.573-2.941-8.138v-18.993h8.234v18.318c0,1.701.438,2.982,1.318,3.839.875.862,2.175,1.29,3.893,1.29,1.997,0,3.597-.574,4.805-1.723,1.204-1.149,1.805-2.918,1.805-5.307v-16.417h8.261v29.329h-7.983Z" style="fill: #fcfaf7;"/>
      <path d="M1327.597,269.865v13.641h.419c1.942-2.147,4.837-3.223,8.685-3.223,2.521,0,4.792.565,6.807,1.696,2.015,1.131,3.615,2.84,4.792,5.124,1.176,2.289,1.764,5.106,1.764,8.448s-.588,6.155-1.764,8.443c-1.176,2.289-2.776,3.994-4.792,5.111-2.015,1.122-4.286,1.682-6.807,1.682-3.994,0-6.957-1.14-8.881-3.419h-.447v2.831h-8.038v-40.334h8.261ZM1329.179,302.116c1.299,1.541,3.068,2.311,5.311,2.311,1.454,0,2.731-.337,3.821-1.021,1.094-.679,1.938-1.691,2.535-3.023.597-1.336.898-2.95.898-4.833s-.301-3.497-.898-4.833c-.597-1.336-1.441-2.348-2.535-3.041-1.09-.688-2.366-1.035-3.821-1.035-2.243,0-4.012.775-5.311,2.325-1.295,1.55-1.947,3.743-1.947,6.583s.652,5.029,1.947,6.565Z" style="fill: #fcfaf7;"/>
      <path d="M1363.427,269.865v40.334h-8.261v-40.334h8.261Z" style="fill: #fcfaf7;"/>
      <path d="M1378.386,270.367v6.725h-8.489v-6.725h8.489ZM1378.272,280.871v29.329h-8.261v-29.329h8.261Z" style="fill: #fcfaf7;"/>
      <path d="M1385.357,287.117c1.308-2.293,3.128-4.021,5.466-5.179,2.33-1.158,5.038-1.737,8.12-1.737,2.859,0,5.334.488,7.422,1.468,2.093.98,3.702,2.289,4.833,3.921,1.131,1.637,1.751,3.406,1.865,5.311v.839h-7.591c-.15-1.436-.729-2.663-1.737-3.67s-2.53-1.514-4.568-1.514c-1.527,0-2.859.351-3.989,1.053-1.131.698-1.997,1.728-2.603,3.082-.611,1.354-.912,2.973-.912,4.86s.301,3.506.912,4.86c.606,1.354,1.473,2.38,2.603,3.082,1.131.698,2.462,1.049,3.989,1.049,2.074,0,3.62-.529,4.637-1.582,1.017-1.058,1.6-2.348,1.751-3.88h7.65v.839c-.15,1.997-.793,3.83-1.919,5.489-1.131,1.664-2.745,2.991-4.846,3.98-2.102.989-4.6,1.482-7.495,1.482-3.082,0-5.79-.579-8.12-1.732-2.339-1.158-4.158-2.881-5.466-5.17-1.304-2.289-1.96-5.093-1.96-8.416s.657-6.137,1.96-8.434Z" style="fill: #fcfaf7;"/>
    </g>
  </g>
</svg>