<?xml version="1.0" encoding="UTF-8"?>
<svg id="Vrstva_1" data-name="Vrstva 1" xmlns="http://www.w3.org/2000/svg" viewBox="0 0 1520 400">
  <g>
    <path d="M114.618,55.485v67.957h73.063V55.485h35.547v167.272h-35.547v-68.768h-73.063v68.768h-35.547V55.485h35.547Z"/>
    <path d="M285.14,101.138v11.499h1.857c7.822-9.295,19.903-13.937,36.241-13.937,14.791,0,26.271,3.85,34.445,11.555,8.169,7.705,12.254,18.955,12.254,33.746v78.757h-34.154v-75.854c0-7.044-1.857-12.352-5.576-15.912-3.714-3.564-9.135-5.346-16.259-5.346-8.211,0-14.871,2.382-19.982,7.147-5.112,4.76-7.667,12.062-7.667,21.896v68.069h-34.267v-121.619h33.108Z"/>
    <path d="M479.363,222.757v-11.382h-1.857c-7.667,9.215-19.673,13.82-36.011,13.82-14.716,0-26.135-3.85-34.267-11.555-8.132-7.705-12.198-18.955-12.198-33.746v-78.757h34.149v75.966c0,7.048,1.82,12.352,5.463,15.916,3.639,3.564,9.018,5.341,16.146,5.341,8.282,0,14.927-2.382,19.921-7.142,4.994-4.765,7.489-12.099,7.489-22.013v-68.069h34.271v121.619h-33.108Z"/>
    <path d="M555.911,101.138v-30.9h34.267v30.9h32.527v25.788h-32.527v66.325l1.857,1.862h29.741v27.645h-30.205c-11.152,0-19.884-2.865-26.191-8.596-6.312-5.731-9.468-13.937-9.468-24.625v-62.61h-25.558v-25.788h25.558Z"/>
    <path d="M677.412,101.138v121.619h-34.267v-121.619h34.267ZM643.727,86.614v-3.484l15.912-29.038h30.088v3.484l-19.865,29.038h-26.135Z"/>
    <path d="M877.793,65.647c13.009,6.781,23.059,16.46,30.145,29.042,7.086,12.587,10.627,27.396,10.627,44.434s-3.541,31.847-10.627,44.429c-7.086,12.587-17.136,22.266-30.145,29.042s-28.269,10.162-45.765,10.162h-66.793V55.485h66.793c17.497,0,32.757,3.391,45.765,10.162ZM830.63,193.02c10.378,0,19.476-2.035,27.298-6.101,7.822-4.066,13.9-10.12,18.238-18.177,4.338-8.052,6.504-17.928,6.504-29.619s-2.167-21.567-6.504-29.624c-4.338-8.052-10.416-14.111-18.238-18.177-7.822-4.066-16.92-6.101-27.298-6.101h-29.849v107.799h29.849Z"/>
    <path d="M976.063,55.485v105.243c0,10.842,3.156,19.265,9.468,25.263,6.312,6.003,15.508,9.004,27.589,9.004s21.277-3.001,27.589-9.004c6.312-5.998,9.468-14.42,9.468-25.263V55.485h35.542v106.402c0,12.934-2.786,24.184-8.361,33.746-5.576,9.567-13.787,16.943-24.625,22.13-10.842,5.187-24.048,7.78-39.613,7.78-15.255,0-28.344-2.593-39.261-7.78-10.922-5.187-19.208-12.563-24.859-22.13-5.656-9.562-8.479-20.812-8.479-33.746V55.485h35.542Z"/>
    <path d="M1150.768,55.485v67.957h73.063V55.485h35.547v167.272h-35.547v-68.768h-73.063v68.768h-35.547V55.485h35.547Z"/>
    <path d="M1381.466,55.485l57.147,163.788v3.484h-35.894l-12.892-39.496h-62.845l-12.892,39.496h-35.083v-3.484l57.152-163.788h45.306ZM1380.533,153.642l-21.141-64.819h-1.857l-21.258,64.819h44.255Z"/>
  </g>
  <g>
    <path d="M117.939,274.169v9.703h-26.976v13.574h23.822v9.665h-23.822v23.2h-11.892v-56.141h38.868Z"/>
    <path d="M134.234,289.488v4.563h.628c.755-1.586,1.885-2.767,3.389-3.547,1.51-.781,3.497-1.168,5.965-1.168h5.692v9.354h-5.73c-3.198,0-5.565.831-7.114,2.494-1.548,1.669-2.323,4.277-2.323,7.837v21.29h-11.499v-40.822h10.991Z"/>
    <path d="M167.727,274.867v9.36h-11.816v-9.36h11.816ZM167.569,289.488v40.822h-11.499v-40.822h11.499Z"/>
    <path d="M177.303,298.124c1.726-3.186,4.156-5.572,7.291-7.171,3.128-1.599,6.828-2.399,11.092-2.399,4.131,0,7.691.781,10.68,2.335,2.989,1.561,5.28,3.833,6.866,6.809,1.58,2.976,2.373,6.542,2.373,10.699v4.639h-29.939c.051,1.872.482,3.541,1.288,5.013.8,1.466,1.948,2.621,3.427,3.471,1.485.844,3.224,1.263,5.229,1.263,2.779,0,4.924-.552,6.428-1.656,1.51-1.104,2.443-2.411,2.811-3.915h9.982v1.168c-.495,2.132-1.46,4.163-2.887,6.098-1.428,1.942-3.49,3.554-6.181,4.835-2.691,1.288-6.009,1.929-9.963,1.929-4.264,0-7.977-.793-11.15-2.392-3.173-1.599-5.622-3.998-7.348-7.196-1.732-3.198-2.595-7.12-2.595-11.771s.863-8.573,2.595-11.759ZM204.888,305.238c-.025-1.58-.393-3.008-1.091-4.264-.704-1.263-1.751-2.259-3.141-2.983-1.39-.73-3.097-1.091-5.127-1.091-1.948,0-3.63.374-5.045,1.13-1.421.755-2.519,1.758-3.3,3.021-.774,1.263-1.244,2.659-1.402,4.188h19.107Z"/>
    <path d="M233.812,289.488v3.858h.622c2.627-3.116,6.682-4.677,12.165-4.677,4.962,0,8.821,1.295,11.562,3.884,2.741,2.583,4.112,6.358,4.112,11.321v26.436h-11.46v-25.459c0-2.367-.628-4.144-1.872-5.343-1.25-1.193-3.071-1.79-5.457-1.79-2.76,0-4.994.8-6.707,2.392-1.72,1.599-2.576,4.049-2.576,7.355v22.845h-11.499v-40.822h11.111Z"/>
    <path d="M311.827,330.31h-11.15v-3.941h-.622c-2.703,3.173-6.834,4.759-12.4,4.759-3.484,0-6.625-.781-9.436-2.342-2.805-1.555-5.032-3.928-6.682-7.114-1.656-3.186-2.481-7.101-2.481-11.752s.825-8.573,2.481-11.759c1.65-3.179,3.877-5.559,6.682-7.133,2.811-1.574,5.952-2.361,9.436-2.361,5.356,0,9.385,1.498,12.089,4.486h.584v-18.987h11.499v56.141ZM283.385,319.059c1.809,2.145,4.258,3.217,7.348,3.217,3.122,0,5.584-1.072,7.393-3.217,1.802-2.139,2.71-5.191,2.71-9.138s-.907-7.006-2.71-9.163c-1.809-2.158-4.271-3.236-7.393-3.236-2.024,0-3.801.482-5.318,1.44-1.523.965-2.691,2.373-3.509,4.233-.819,1.859-1.231,4.099-1.231,6.727,0,3.947.907,6.999,2.71,9.138Z"/>
    <path d="M321.339,294.38c1.377-1.828,3.414-3.249,6.105-4.245,2.691-1.003,5.959-1.504,9.804-1.504,3.871,0,7.19.501,9.944,1.504,2.754.996,4.893,2.424,6.409,4.264,1.523,1.847,2.386,4.042,2.595,6.593v1.168h-10.369c-.159-1.948-.971-3.338-2.437-4.169-1.472-.831-3.49-1.25-6.067-1.25-2.392,0-4.195.324-5.419.977-1.218.647-1.828,1.599-1.828,2.843,0,1.142.406,2.012,1.225,2.595.819.584,2.005.99,3.566,1.225l8.11,1.174c9.201,1.295,13.802,5.419,13.802,12.355,0,2.602-.666,4.893-2.005,6.885-1.339,1.986-3.389,3.547-6.143,4.677-2.754,1.13-6.174,1.694-10.255,1.694s-7.59-.552-10.528-1.656c-2.938-1.104-5.184-2.621-6.746-4.544-1.555-1.923-2.399-4.093-2.532-6.511v-1.168h10.604c.133,1.923,1.034,3.357,2.71,4.309,1.675.946,3.839,1.421,6.492,1.421,2.443,0,4.309-.387,5.597-1.168,1.288-.781,1.929-1.872,1.929-3.274,0-1.25-.457-2.208-1.364-2.887-.907-.673-2.291-1.142-4.131-1.402l-8.11-1.174c-4.106-.597-7.304-1.891-9.595-3.896-2.284-1.999-3.427-4.785-3.427-8.345,0-2.494.685-4.658,2.062-6.492Z"/>
    <path d="M383.687,298.219c1.872-3.192,4.474-5.603,7.818-7.228,3.338-1.625,7.177-2.437,11.518-2.437s8.18.812,11.524,2.437c3.338,1.625,5.946,4.036,7.818,7.228,1.866,3.198,2.805,7.101,2.805,11.702,0,4.575-.939,8.459-2.805,11.657-1.872,3.198-4.48,5.61-7.818,7.228-3.344,1.625-7.183,2.437-11.524,2.437s-8.18-.812-11.518-2.437c-3.344-1.618-5.946-4.03-7.818-7.228-1.872-3.198-2.811-7.082-2.811-11.657,0-4.601.939-8.503,2.811-11.702ZM395.306,319.218c1.872,2.17,4.442,3.255,7.716,3.255s5.851-1.085,7.723-3.255c1.872-2.17,2.805-5.267,2.805-9.297s-.933-7.139-2.805-9.322c-1.872-2.183-4.448-3.274-7.723-3.274s-5.844,1.091-7.716,3.274c-1.872,2.183-2.811,5.292-2.811,9.322s.939,7.126,2.811,9.297Z"/>
    <path d="M428.132,289.488h8.814v-4.169c0-3.585,1.053-6.346,3.16-8.269,2.1-1.923,5.026-2.881,8.77-2.881h10.331v8.383h-10.172l-.628.622v6.314h10.528v8.656h-10.528v32.167h-11.46v-32.167h-8.814v-8.656Z"/>
    <path d="M488.798,289.488v-10.369h11.499v10.369h10.921v8.656h-10.921v22.261l.628.628h9.982v9.278h-10.141c-3.744,0-6.669-.958-8.789-2.887-2.119-1.923-3.179-4.677-3.179-8.262v-21.017h-8.579v-8.656h8.579Z"/>
    <path d="M529.576,274.169v18.866h.628c2.57-2.906,6.536-4.366,11.892-4.366,4.962,0,8.833,1.295,11.613,3.884,2.786,2.583,4.176,6.358,4.176,11.321v26.436h-11.46v-25.459c0-2.367-.641-4.144-1.916-5.343-1.269-1.193-3.116-1.79-5.534-1.79-2.779,0-5.045.8-6.784,2.392-1.739,1.599-2.614,4.049-2.614,7.355v22.845h-11.499v-56.141h11.499Z"/>
    <path d="M567.263,298.124c1.726-3.186,4.156-5.572,7.291-7.171,3.128-1.599,6.828-2.399,11.092-2.399,4.131,0,7.691.781,10.68,2.335,2.989,1.561,5.28,3.833,6.866,6.809,1.58,2.976,2.373,6.542,2.373,10.699v4.639h-29.939c.051,1.872.482,3.541,1.288,5.013.8,1.466,1.948,2.621,3.427,3.471,1.485.844,3.224,1.263,5.229,1.263,2.779,0,4.924-.552,6.428-1.656,1.51-1.104,2.443-2.411,2.811-3.915h9.982v1.168c-.495,2.132-1.46,4.163-2.887,6.098-1.428,1.942-3.49,3.554-6.181,4.835-2.691,1.288-6.009,1.929-9.963,1.929-4.264,0-7.977-.793-11.15-2.392-3.173-1.599-5.622-3.998-7.348-7.196-1.732-3.198-2.595-7.12-2.595-11.771s.863-8.573,2.595-11.759ZM594.848,305.238c-.025-1.58-.393-3.008-1.091-4.264-.704-1.263-1.751-2.259-3.141-2.983-1.39-.73-3.097-1.091-5.127-1.091-1.948,0-3.63.374-5.045,1.13-1.421.755-2.519,1.758-3.3,3.021-.774,1.263-1.244,2.659-1.402,4.188h19.107Z"/>
    <path d="M673.25,274.169v9.703h-28.696v13.301h24.793v9.665h-24.793v13.764h29.241v9.709h-41.133v-56.141h40.588Z"/>
    <path d="M683.898,294.539c1.555-1.91,3.706-3.389,6.447-4.423,2.748-1.041,5.971-1.561,9.69-1.561,5.8,0,10.28,1.339,13.453,4.017,3.173,2.678,4.759,6.733,4.759,12.165v25.573h-10.61v-4.214h-.622c-.831,1.409-2.246,2.576-4.252,3.509-1.999.939-4.753,1.409-8.262,1.409-3.097,0-5.813-.501-8.148-1.504-2.342-1.003-4.163-2.443-5.457-4.328-1.301-1.885-1.954-4.112-1.954-6.688,0-3.871,1.32-6.86,3.96-8.967,2.64-2.107,6.155-3.414,10.547-3.934l13.802-1.72v-.736c0-2.208-.603-3.826-1.815-4.855-1.206-1.028-3.059-1.542-5.553-1.542-2.469,0-4.398.482-5.775,1.44-1.377.965-2.158,2.367-2.335,4.214h-10.648v-1.168c.286-2.551,1.212-4.778,2.773-6.688ZM692.141,321.343c1.18.857,2.811,1.288,4.893,1.288,3.097,0,5.572-.8,7.431-2.399,1.853-1.599,2.786-3.934,2.786-6.999v-1.675l-11.188,1.479c-1.77.26-3.16.781-4.176,1.561-1.015.781-1.517,1.859-1.517,3.236,0,1.479.59,2.653,1.77,3.509Z"/>
    <path d="M738.047,289.488v4.563h.628c.755-1.612,1.885-2.811,3.389-3.604,1.51-.793,3.497-1.193,5.965-1.193h3.433v9.322h-3.471c-3.198,0-5.565.825-7.114,2.475-1.548,1.65-2.323,4.258-2.323,7.818v21.442h-11.499v-40.822h10.991Z"/>
    <path d="M764.014,289.488v-10.369h11.499v10.369h10.921v8.656h-10.921v22.261l.628.628h9.982v9.278h-10.141c-3.744,0-6.669-.958-8.789-2.887-2.119-1.923-3.179-4.677-3.179-8.262v-21.017h-8.579v-8.656h8.579Z"/>
    <path d="M804.791,274.169v18.866h.628c2.57-2.906,6.536-4.366,11.892-4.366,4.962,0,8.833,1.295,11.613,3.884,2.786,2.583,4.176,6.358,4.176,11.321v26.436h-11.46v-25.459c0-2.367-.641-4.144-1.916-5.343-1.269-1.193-3.116-1.79-5.534-1.79-2.779,0-5.045.8-6.784,2.392-1.739,1.599-2.614,4.049-2.614,7.355v22.845h-11.499v-56.141h11.499Z"/>
    <path d="M862.925,286.524c2.291-4.366,5.603-7.697,9.944-10.001,4.341-2.297,9.55-3.446,15.636-3.446,5.692,0,10.477.996,14.367,3.002,3.884,1.999,6.784,4.537,8.694,7.621,1.91,3.078,2.932,6.232,3.059,9.455v1.168h-11.111c-.152-1.847-.723-3.617-1.713-5.324-.99-1.701-2.564-3.122-4.721-4.264-2.158-1.149-4.937-1.72-8.338-1.72-5.54,0-9.772,1.675-12.711,5.013-2.938,3.338-4.41,8.078-4.41,14.208s1.472,10.877,4.41,14.215c2.938,3.338,7.171,5.007,12.711,5.007,3.401,0,6.2-.59,8.383-1.77,2.183-1.187,3.788-2.659,4.81-4.429,1.028-1.764,1.631-3.598,1.815-5.495h11.111v1.168c-.26,3.433-1.358,6.701-3.293,9.811-1.935,3.103-4.835,5.66-8.694,7.659-3.858,1.999-8.649,3.002-14.367,3.002-6.086,0-11.295-1.149-15.636-3.452-4.341-2.297-7.653-5.635-9.944-10.001-2.284-4.366-3.427-9.601-3.427-15.712s1.142-11.346,3.427-15.712Z"/>
    <path d="M956.5,289.488v7.799l-22.42,24.564h22.845v8.459h-36.805v-7.761l22.382-24.603h-21.601v-8.459h35.6Z"/>
    <path d="M963.886,298.124c1.726-3.186,4.156-5.572,7.291-7.171,3.128-1.599,6.828-2.399,11.092-2.399,4.131,0,7.691.781,10.68,2.335,2.989,1.561,5.28,3.833,6.866,6.809,1.58,2.976,2.373,6.542,2.373,10.699v4.639h-29.939c.051,1.872.482,3.541,1.288,5.013.8,1.466,1.948,2.621,3.427,3.471,1.485.844,3.224,1.263,5.229,1.263,2.779,0,4.924-.552,6.428-1.656,1.51-1.104,2.443-2.411,2.811-3.915h9.982v1.168c-.495,2.132-1.46,4.163-2.887,6.098-1.428,1.942-3.49,3.554-6.181,4.835-2.691,1.288-6.009,1.929-9.963,1.929-4.264,0-7.977-.793-11.15-2.392-3.173-1.599-5.622-3.998-7.348-7.196-1.732-3.198-2.595-7.12-2.595-11.771s.863-8.573,2.595-11.759ZM991.471,305.238c-.025-1.58-.393-3.008-1.091-4.264-.704-1.263-1.751-2.259-3.141-2.983-1.39-.73-3.097-1.091-5.127-1.091-1.948,0-3.63.374-5.045,1.13-1.421.755-2.519,1.758-3.3,3.021-.774,1.263-1.244,2.659-1.402,4.188h19.107Z"/>
    <path d="M1009.988,298.181c1.821-3.192,4.353-5.597,7.609-7.209,3.243-1.612,7.012-2.418,11.302-2.418,3.979,0,7.425.679,10.331,2.043,2.913,1.364,5.153,3.186,6.727,5.457,1.574,2.278,2.437,4.74,2.595,7.393v1.168h-10.566c-.209-1.999-1.015-3.706-2.418-5.108-1.402-1.402-3.522-2.107-6.358-2.107-2.126,0-3.979.489-5.553,1.466-1.574.971-2.779,2.405-3.623,4.29-.85,1.885-1.269,4.137-1.269,6.765s.419,4.88,1.269,6.765c.844,1.885,2.05,3.312,3.623,4.29,1.574.971,3.427,1.46,5.553,1.46,2.887,0,5.039-.736,6.454-2.202,1.415-1.472,2.227-3.268,2.437-5.4h10.648v1.168c-.209,2.779-1.104,5.33-2.672,7.64-1.574,2.316-3.82,4.163-6.746,5.54-2.925,1.377-6.403,2.062-10.432,2.062-4.29,0-8.059-.806-11.302-2.411-3.255-1.612-5.787-4.011-7.609-7.196-1.815-3.186-2.729-7.088-2.729-11.714s.914-8.541,2.729-11.74Z"/>
    <path d="M1066.986,274.169v18.866h.628c2.57-2.906,6.536-4.366,11.892-4.366,4.962,0,8.833,1.295,11.613,3.884,2.786,2.583,4.176,6.358,4.176,11.321v26.436h-11.46v-25.459c0-2.367-.641-4.144-1.916-5.343-1.269-1.193-3.116-1.79-5.534-1.79-2.779,0-5.045.8-6.784,2.392-1.739,1.599-2.614,4.049-2.614,7.355v22.845h-11.499v-56.141h11.499Z"/>
    <path d="M1161.227,276.079c2.805,1.269,5.02,3.167,6.644,5.692,1.625,2.519,2.437,5.559,2.437,9.119,0,3.541-.755,6.555-2.259,9.049-1.51,2.494-3.554,4.385-6.143,5.673-2.589,1.288-5.476,1.929-8.675,1.929h-2.38l19.85,21.601v1.168h-13.339l-20.586-23.003h-.781v23.003h-11.771v-56.141h27.484c3.535,0,6.707.635,9.519,1.91ZM1149.836,298.575c2.703,0,4.855-.628,6.454-1.891,1.599-1.263,2.399-3.09,2.399-5.476,0-2.367-.8-4.182-2.399-5.445-1.599-1.256-3.75-1.891-6.454-1.891h-13.84v14.703h13.84Z"/>
    <path d="M1176.806,298.124c1.726-3.186,4.156-5.572,7.291-7.171,3.128-1.599,6.828-2.399,11.092-2.399,4.131,0,7.691.781,10.68,2.335,2.989,1.561,5.28,3.833,6.866,6.809,1.58,2.976,2.373,6.542,2.373,10.699v4.639h-29.939c.051,1.872.482,3.541,1.288,5.013.8,1.466,1.948,2.621,3.427,3.471,1.485.844,3.224,1.263,5.229,1.263,2.779,0,4.924-.552,6.428-1.656,1.51-1.104,2.443-2.411,2.811-3.915h9.982v1.168c-.495,2.132-1.46,4.163-2.887,6.098-1.428,1.942-3.49,3.554-6.181,4.835-2.691,1.288-6.009,1.929-9.963,1.929-4.264,0-7.977-.793-11.15-2.392-3.173-1.599-5.622-3.998-7.348-7.196-1.732-3.198-2.595-7.12-2.595-11.771s.863-8.573,2.595-11.759ZM1204.391,305.238c-.025-1.58-.393-3.008-1.091-4.264-.704-1.263-1.751-2.259-3.141-2.983-1.39-.73-3.097-1.091-5.127-1.091-1.948,0-3.63.374-5.045,1.13-1.421.755-2.519,1.758-3.3,3.021-.774,1.263-1.244,2.659-1.402,4.188h19.107Z"/>
    <path d="M1222.203,289.488h11.188v3.979h.622c2.703-3.198,6.828-4.797,12.362-4.797,3.509,0,6.669.787,9.474,2.361,2.805,1.574,5.032,3.953,6.669,7.133,1.637,3.186,2.456,7.107,2.456,11.759s-.819,8.567-2.456,11.752c-1.637,3.186-3.865,5.559-6.669,7.114-2.805,1.561-5.965,2.342-9.474,2.342-5.356,0-9.385-1.479-12.089-4.442h-.584v19.221h-11.499v-56.42ZM1235.904,319.059c1.809,2.145,4.271,3.217,7.393,3.217,2.024,0,3.801-.47,5.318-1.421,1.523-.946,2.697-2.354,3.528-4.207.831-1.859,1.25-4.106,1.25-6.727s-.419-4.867-1.25-6.727c-.831-1.859-2.005-3.268-3.528-4.233-1.517-.958-3.293-1.44-5.318-1.44-3.122,0-5.584,1.079-7.393,3.236-1.802,2.158-2.71,5.21-2.71,9.163s.907,6.999,2.71,9.138Z"/>
    <path d="M1300.059,330.31v-3.82h-.622c-2.576,3.09-6.606,4.639-12.089,4.639-4.937,0-8.77-1.295-11.499-3.877-2.729-2.589-4.093-6.365-4.093-11.327v-26.436h11.46v25.497c0,2.367.609,4.15,1.834,5.343,1.218,1.199,3.027,1.796,5.419,1.796,2.779,0,5.007-.8,6.688-2.399,1.675-1.599,2.513-4.061,2.513-7.386v-22.851h11.499v40.822h-11.111Z"/>
    <path d="M1331.795,274.169v18.987h.584c2.703-2.989,6.733-4.486,12.089-4.486,3.509,0,6.669.787,9.474,2.361,2.805,1.574,5.032,3.953,6.669,7.133,1.637,3.186,2.456,7.107,2.456,11.759s-.819,8.567-2.456,11.752c-1.637,3.186-3.865,5.559-6.669,7.114-2.805,1.561-5.965,2.342-9.474,2.342-5.559,0-9.684-1.586-12.362-4.759h-.622v3.941h-11.188v-56.141h11.499ZM1333.997,319.059c1.809,2.145,4.271,3.217,7.393,3.217,2.024,0,3.801-.47,5.318-1.421,1.523-.946,2.697-2.354,3.528-4.207.831-1.859,1.25-4.106,1.25-6.727s-.419-4.867-1.25-6.727c-.831-1.859-2.005-3.268-3.528-4.233-1.517-.958-3.293-1.44-5.318-1.44-3.122,0-5.584,1.079-7.393,3.236-1.802,2.158-2.71,5.21-2.71,9.163s.907,6.999,2.71,9.138Z"/>
    <path d="M1381.666,274.169v56.141h-11.499v-56.141h11.499Z"/>
    <path d="M1402.486,274.867v9.36h-11.816v-9.36h11.816ZM1402.328,289.488v40.822h-11.499v-40.822h11.499Z"/>
    <path d="M1412.189,298.181c1.821-3.192,4.353-5.597,7.609-7.209,3.243-1.612,7.012-2.418,11.302-2.418,3.979,0,7.425.679,10.331,2.043,2.913,1.364,5.153,3.186,6.727,5.457,1.574,2.278,2.437,4.74,2.595,7.393v1.168h-10.566c-.209-1.999-1.015-3.706-2.418-5.108-1.402-1.402-3.522-2.107-6.358-2.107-2.126,0-3.979.489-5.553,1.466-1.574.971-2.779,2.405-3.623,4.29-.85,1.885-1.269,4.137-1.269,6.765s.419,4.88,1.269,6.765c.844,1.885,2.05,3.312,3.623,4.29,1.574.971,3.427,1.46,5.553,1.46,2.887,0,5.039-.736,6.454-2.202,1.415-1.472,2.227-3.268,2.437-5.4h10.648v1.168c-.209,2.779-1.104,5.33-2.672,7.64-1.574,2.316-3.82,4.163-6.746,5.54-2.925,1.377-6.403,2.062-10.432,2.062-4.29,0-8.059-.806-11.302-2.411-3.255-1.612-5.787-4.011-7.609-7.196-1.815-3.186-2.729-7.088-2.729-11.714s.914-8.541,2.729-11.74Z"/>
  </g>
</svg>