<?xml version="1.0" encoding="UTF-8"?>
<svg id="Vrstva_1" data-name="Vrstva 1" xmlns="http://www.w3.org/2000/svg" viewBox="0 0 1520 400">
  <path d="M238.869,127.027c-53.013,1.315-87.471,44.733-86.275,81.753,1.157,35.846,24.479,74.944,68.716,74.944s90.656-42.318,90.655-86.768c0-14.278-3.895-26.608-10.315-36.813-10.904-17.337-23.061-18.283-30.95-21.873-7.191-3.274-15.791-11.644-31.831-11.242h0ZM307.588,132.755c-1.467-3.214.367-16.116-8.046-25.09-8.411-8.971-27.022-29.052-79.674-29.054-46.439.002-116.507,27.671-122.837,111.168-5.845,77.105,65.442,131.609,121.737,131.609s121.345-51.629,121.345-116.541c0-43.039-31.057-68.874-32.525-72.093h0Z" style="fill: #fcfaf7; fill-rule: evenodd;"/>
  <g>
    <path d="M443.744,129.843v50.278h54.056v-50.278h26.299v123.757h-26.299v-50.878h-54.056v50.878h-26.299v-123.757h26.299Z" style="fill: #fcfaf7;"/>
    <path d="M569.905,163.62v8.507h1.374c5.787-6.877,14.725-10.312,26.813-10.312,10.943,0,19.437,2.849,25.484,8.549,6.044,5.701,9.066,14.024,9.066,24.967v58.268h-25.269v-56.121c0-5.211-1.374-9.139-4.125-11.772-2.748-2.637-6.759-3.955-12.029-3.955-6.075,0-11.002,1.763-14.784,5.288-3.782,3.522-5.673,8.924-5.673,16.2v50.361h-25.352v-89.98h24.495Z" style="fill: #fcfaf7;"/>
    <path d="M713.601,253.6v-8.421h-1.374c-5.673,6.818-14.555,10.225-26.643,10.225-10.888,0-19.336-2.849-25.352-8.549-6.016-5.701-9.024-14.024-9.024-24.967v-58.268h25.266v56.204c0,5.215,1.346,9.139,4.042,11.776,2.692,2.637,6.672,3.952,11.946,3.952,6.127,0,11.044-1.763,14.739-5.284,3.695-3.525,5.541-8.952,5.541-16.286v-50.361h25.356v89.98h-24.495Z" style="fill: #fcfaf7;"/>
    <path d="M770.236,163.62v-22.861h25.352v22.861h24.065v19.079h-24.065v49.07l1.374,1.377h22.004v20.453h-22.348c-8.251,0-14.711-2.12-19.378-6.36-4.67-4.24-7.005-10.312-7.005-18.219v-46.322h-18.909v-19.079h18.909Z" style="fill: #fcfaf7;"/>
    <path d="M860.129,163.62v89.98h-25.352v-89.98h25.352ZM835.207,152.874v-2.578l11.772-21.484h22.261v2.578l-14.697,21.484h-19.336Z" style="fill: #fcfaf7;"/>
    <path d="M1008.381,137.362c9.625,5.017,17.06,12.178,22.303,21.487,5.243,9.312,7.862,20.269,7.862,32.874s-2.62,23.562-7.862,32.871c-5.243,9.312-12.678,16.474-22.303,21.487-9.625,5.014-20.915,7.519-33.86,7.519h-49.417v-123.757h49.417c12.945,0,24.235,2.509,33.86,7.519ZM973.488,231.599c7.678,0,14.409-1.506,20.196-4.514,5.787-3.008,10.284-7.487,13.493-13.448,3.209-5.957,4.812-13.264,4.812-21.914s-1.603-15.957-4.812-21.917c-3.209-5.957-7.706-10.44-13.493-13.448-5.787-3.008-12.518-4.514-20.196-4.514h-22.084v79.755h22.084Z" style="fill: #fcfaf7;"/>
    <path d="M1081.087,129.843v77.865c0,8.022,2.335,14.253,7.005,18.691,4.67,4.441,11.474,6.662,20.412,6.662s15.742-2.221,20.412-6.662c4.67-4.438,7.005-10.669,7.005-18.691v-77.865h26.296v78.722c0,9.569-2.061,17.893-6.186,24.967-4.125,7.078-10.201,12.536-18.219,16.373-8.022,3.837-17.792,5.756-29.308,5.756-11.287,0-20.97-1.919-29.047-5.756-8.081-3.837-14.211-9.295-18.392-16.373-4.184-7.074-6.273-15.398-6.273-24.967v-78.722h26.296Z" style="fill: #fcfaf7;"/>
    <path d="M1210.343,129.843v50.278h54.056v-50.278h26.299v123.757h-26.299v-50.878h-54.056v50.878h-26.299v-123.757h26.299Z" style="fill: #fcfaf7;"/>
    <path d="M1381.026,129.843l42.28,121.179v2.578h-26.556l-9.538-29.221h-46.496l-9.538,29.221h-25.956v-2.578l42.284-121.179h33.52ZM1380.335,202.465l-15.641-47.957h-1.374l-15.728,47.957h32.743Z" style="fill: #fcfaf7;"/>
  </g>
</svg>