<?xml version="1.0" encoding="UTF-8"?>
<svg id="Vrstva_1" data-name="Vrstva 1" xmlns="http://www.w3.org/2000/svg" viewBox="0 0 1520 400">
  <path d="M311.378,114.875c-18.834-24.7-55.088-31.978-85.36-31.585v52.718c6.958-1.773,14.112-2.736,21.291-2.786,14.99-.105,19.726,5.369,31.809,11.282,5.708,2.793,11.859,3.982,17.554,7.293,8.634,5.02,15.235,13.589,19.688,23.257,6.789-4.116,13.705-8.024,20.734-11.718-5.283-8.448-11.647-16.224-18.463-23.559-2.032-8.993-1.317-17.118-7.252-24.902Z" style="fill: #ffcaff;"/>
  <path d="M196.215,274.959c-30.981-16.556-46.956-60.061-37.268-93.306,9.003-30.893,36.139-54.457,67.071-62.341v-53.945c-2.554.033-5.072.113-7.529.248-71.472,3.908-124.274,59.216-121.367,131.361,2.411,59.823,50.456,111.997,108.504,123.609,6.749,1.35,13.571,1.985,20.392,1.975v-39.648c-10.218-.378-20.321-2.886-29.803-7.953Z" style="fill: #17964c;"/>
  <path d="M323.088,202.551c2.004,48.344-48.852,95.119-97.07,93.336v38.746c73.737-.112,147.223-77.915,120.448-152.245-2.429-6.744-5.63-13.067-9.373-19.052-7.029,3.694-13.945,7.603-20.734,11.718,4.084,8.869,6.362,18.662,6.729,27.497Z" style="fill: #ff9daf;"/>
  <g>
    <path d="M471.771,133.375v48.823h52.492v-48.823h25.539v120.176h-25.539v-49.406h-52.492v49.406h-25.539v-120.176h25.539Z" style="fill: #17964c;"/>
    <path d="M594.282,166.174v8.261h1.334c5.62-6.678,14.299-10.013,26.037-10.013,10.626,0,18.874,2.766,24.747,8.302,5.869,5.536,8.804,13.618,8.804,24.245v56.583h-24.538v-54.497c0-5.061-1.334-8.874-4.006-11.432-2.668-2.561-6.563-3.841-11.681-3.841-5.899,0-10.684,1.712-14.356,5.135-3.672,3.42-5.509,8.666-5.509,15.731v48.904h-24.619v-87.377h23.787Z" style="fill: #17964c;"/>
    <path d="M733.821,253.551v-8.177h-1.334c-5.509,6.62-14.134,9.929-25.872,9.929-10.573,0-18.777-2.766-24.619-8.302-5.842-5.536-8.763-13.618-8.763-24.245v-56.583h24.535v54.578c0,5.064,1.307,8.874,3.925,11.435,2.615,2.561,6.479,3.838,11.6,3.838,5.95,0,10.724-1.712,14.312-5.131,3.588-3.423,5.381-8.693,5.381-15.815v-48.904h24.622v87.377h-23.787Z" style="fill: #17964c;"/>
    <path d="M788.816,166.174v-22.2h24.619v22.2h23.369v18.527h-23.369v47.651l1.334,1.338h21.368v19.861h-21.701c-8.012,0-14.285-2.059-18.817-6.176-4.535-4.117-6.802-10.013-6.802-17.692v-44.982h-18.362v-18.527h18.362Z" style="fill: #17964c;"/>
    <path d="M876.109,166.174v87.377h-24.619v-87.377h24.619ZM851.908,155.74v-2.503l11.432-20.862h21.617v2.503l-14.272,20.862h-18.777Z" style="fill: #17964c;"/>
    <path d="M1020.072,140.676c9.346,4.872,16.566,11.826,21.657,20.866,5.091,9.043,7.635,19.683,7.635,31.923s-2.544,22.88-7.635,31.92c-5.091,9.043-12.311,15.997-21.657,20.866-9.346,4.869-20.31,7.301-32.88,7.301h-47.988v-120.176h47.988c12.571,0,23.534,2.436,32.88,7.301ZM986.188,232.187c7.456,0,13.992-1.462,19.612-4.383,5.62-2.921,9.986-7.271,13.103-13.059,3.117-5.785,4.673-12.88,4.673-21.28s-1.557-15.495-4.673-21.283c-3.117-5.785-7.483-10.138-13.103-13.059-5.62-2.921-12.156-4.383-19.612-4.383h-21.445v77.448h21.445Z" style="fill: #17964c;"/>
    <path d="M1090.674,133.375v75.612c0,7.79,2.267,13.841,6.802,18.15,4.535,4.313,11.142,6.469,19.821,6.469s15.286-2.156,19.821-6.469c4.535-4.309,6.802-10.36,6.802-18.15v-75.612h25.535v76.444c0,9.292-2.001,17.375-6.007,24.245-4.006,6.873-9.905,12.173-17.692,15.899-7.79,3.726-17.277,5.59-28.46,5.59-10.96,0-20.364-1.863-28.207-5.59-7.847-3.726-13.8-9.026-17.86-15.899-4.063-6.87-6.092-14.953-6.092-24.245v-76.444h25.535Z" style="fill: #17964c;"/>
    <path d="M1216.191,133.375v48.823h52.492v-48.823h25.539v120.176h-25.539v-49.406h-52.492v49.406h-25.539v-120.176h25.539Z" style="fill: #17964c;"/>
    <path d="M1381.936,133.375l41.057,117.673v2.503h-25.788l-9.262-28.375h-45.151l-9.262,28.375h-25.205v-2.503l41.061-117.673h32.55ZM1381.265,203.896l-15.188-46.569h-1.334l-15.273,46.569h31.795Z" style="fill: #17964c;"/>
  </g>
</svg>