<?xml version="1.0" encoding="UTF-8"?>
<svg id="Vrstva_1" data-name="Vrstva 1" xmlns="http://www.w3.org/2000/svg" viewBox="0 0 1620 400">
  <path d="M164.618,115.668v67.957h73.063v-67.957h35.547v167.272h-35.547v-68.768h-73.063v68.768h-35.547V115.668h35.547Z"/>
  <path d="M335.14,161.32v11.499h1.857c7.822-9.295,19.903-13.937,36.241-13.937,14.791,0,26.271,3.85,34.445,11.555,8.169,7.705,12.254,18.955,12.254,33.746v78.757h-34.154v-75.854c0-7.044-1.857-12.352-5.576-15.912-3.714-3.564-9.135-5.346-16.259-5.346-8.211,0-14.871,2.382-19.982,7.147-5.112,4.76-7.667,12.062-7.667,21.896v68.069h-34.267v-121.619h33.108Z"/>
  <path d="M529.363,282.94v-11.382h-1.857c-7.667,9.215-19.673,13.82-36.011,13.82-14.716,0-26.135-3.85-34.267-11.555-8.132-7.705-12.198-18.955-12.198-33.746v-78.757h34.149v75.966c0,7.048,1.82,12.352,5.463,15.916,3.639,3.564,9.018,5.341,16.146,5.341,8.282,0,14.927-2.382,19.921-7.142,4.994-4.765,7.489-12.099,7.489-22.013v-68.069h34.271v121.619h-33.108Z"/>
  <path d="M605.911,161.32v-30.9h34.267v30.9h32.527v25.788h-32.527v66.325l1.857,1.862h29.741v27.645h-30.205c-11.152,0-19.884-2.865-26.191-8.596-6.312-5.731-9.468-13.937-9.468-24.625v-62.61h-25.558v-25.788h25.558Z"/>
  <path d="M727.412,161.32v121.619h-34.267v-121.619h34.267ZM693.727,146.797v-3.484l15.912-29.038h30.088v3.484l-19.865,29.038h-26.135Z"/>
  <path d="M927.793,125.83c13.009,6.781,23.059,16.46,30.145,29.042,7.086,12.587,10.627,27.396,10.627,44.434s-3.541,31.847-10.627,44.429c-7.086,12.587-17.136,22.266-30.145,29.042-13.009,6.776-28.269,10.162-45.765,10.162h-66.793V115.668h66.793c17.497,0,32.757,3.391,45.765,10.162ZM880.63,253.203c10.378,0,19.476-2.035,27.298-6.101,7.822-4.066,13.9-10.12,18.238-18.177,4.338-8.052,6.504-17.928,6.504-29.619s-2.167-21.567-6.504-29.624c-4.338-8.052-10.416-14.111-18.238-18.177-7.822-4.066-16.92-6.101-27.298-6.101h-29.849v107.799h29.849Z"/>
  <path d="M1026.063,115.668v105.243c0,10.842,3.156,19.265,9.468,25.263,6.312,6.003,15.508,9.004,27.589,9.004s21.277-3.001,27.589-9.004c6.312-5.998,9.468-14.42,9.468-25.263v-105.243h35.542v106.402c0,12.934-2.786,24.184-8.361,33.746-5.576,9.567-13.787,16.943-24.625,22.13-10.842,5.187-24.048,7.78-39.613,7.78-15.255,0-28.344-2.593-39.261-7.78-10.922-5.187-19.208-12.563-24.859-22.13-5.656-9.562-8.479-20.812-8.479-33.746v-106.402h35.542Z"/>
  <path d="M1200.768,115.668v67.957h73.063v-67.957h35.547v167.272h-35.547v-68.768h-73.063v68.768h-35.547V115.668h35.547Z"/>
  <path d="M1431.466,115.668l57.147,163.788v3.484h-35.894l-12.892-39.496h-62.845l-12.892,39.496h-35.083v-3.484l57.152-163.788h45.306ZM1430.533,213.825l-21.141-64.819h-1.857l-21.258,64.819h44.255Z"/>
</svg>